<svg xmlns="http://www.w3.org/2000/svg" width="124.205" height="103.463" viewBox="0 0 124.205 103.463">
  <g id="Group_93" data-name="Group 93" transform="translate(-31.635 36.313)">
    <g id="Group_80" data-name="Group 80" transform="translate(31.635 -36.313)">
      <g id="Group_77" data-name="Group 77" transform="translate(0 0)">
        <path id="Path_61" data-name="Path 61" d="M31.635,29.116h6.024L40.106,39.2l2.834-10.081H47.58L50.091,39.2,52.83,29.116h5.476L52.958,45.962H47.45l-2.512-9.405-2.609,9.405h-5.6Z" transform="translate(-31.635 -28.665)" fill="#040505"/>
        <path id="Path_62" data-name="Path 62" d="M57.024,37.77v-.258c0-5.412,4.026-8.826,9.115-8.826,4.606,0,8.568,2.642,8.568,8.7V38.9H62.854c.161,2.222,1.449,3.511,3.511,3.511,1.9,0,2.706-.87,2.931-2h5.412c-.515,3.8-3.447,5.959-8.537,5.959C60.888,46.37,57.024,43.278,57.024,37.77ZM69.1,35.645c-.1-2.03-1.095-3.157-2.963-3.157-1.739,0-2.931,1.127-3.221,3.157Z" transform="translate(-30.323 -28.687)" fill="#040505"/>
        <path id="Path_63" data-name="Path 63" d="M31.911,67.825h5.314c.194,1.224.741,1.9,2.384,1.9,1.417,0,2.061-.548,2.061-1.385,0-.806-.806-1.192-3.125-1.514-4.51-.579-6.41-1.9-6.41-5.411,0-3.737,3.318-5.54,7.216-5.54,4.155,0,7.054,1.418,7.441,5.444H41.574a1.883,1.883,0,0,0-2.158-1.675c-1.256,0-1.9.548-1.9,1.321,0,.806.773,1.127,2.834,1.385,4.671.579,6.925,1.8,6.925,5.412,0,3.993-2.964,5.8-7.634,5.8C34.842,73.558,32.039,71.562,31.911,67.825Z" transform="translate(-31.621 -27.282)" fill="#040505"/>
        <path id="Path_64" data-name="Path 64" d="M48.318,52.1a3.18,3.18,0,1,1,3.157,2.964A3.009,3.009,0,0,1,48.318,52.1Zm.29,4.574h5.765V73.522H48.608Z" transform="translate(-30.773 -27.632)" fill="#040505"/>
        <path id="Path_65" data-name="Path 65" d="M57.048,56.326h5.765V58.9A5.891,5.891,0,0,1,68.1,55.875a4.589,4.589,0,0,1,4.575,2.8,6.674,6.674,0,0,1,5.572-2.8c3.189,0,5.508,2.061,5.508,6.281V73.172H77.985V63.122c0-1.707-.837-2.544-2.158-2.544-1.546,0-2.577,1-2.577,2.834v9.76h-5.7V63.122c0-1.707-.838-2.544-2.158-2.544-1.546,0-2.578,1-2.578,2.834v9.76H57.048Z" transform="translate(-30.321 -27.282)" fill="#040505"/>
        <path id="Path_66" data-name="Path 66" d="M85.315,56.326H91.08v2.512a5.945,5.945,0,0,1,5.251-2.964c3.929,0,7.118,2.964,7.118,8.729v.258c0,5.8-3.189,8.7-7.15,8.7a5.556,5.556,0,0,1-5.218-2.867v8.118H85.315Zm12.272,8.535V64.6c0-2.963-1.288-4.38-3.318-4.38-2.093,0-3.35,1.513-3.35,4.348v.258c0,2.867,1.257,4.317,3.35,4.317C96.428,69.146,97.587,67.632,97.587,64.862Z" transform="translate(-28.86 -27.282)" fill="#040505"/>
        <path id="Path_67" data-name="Path 67" d="M104.852,49.26h5.734V73.514h-5.734Z" transform="translate(-27.851 -27.624)" fill="#040505"/>
        <path id="Path_68" data-name="Path 68" d="M113.085,52.1a3.18,3.18,0,1,1,3.157,2.964A3.01,3.01,0,0,1,113.085,52.1Zm.29,4.574h5.765V73.522h-5.765Z" transform="translate(-27.425 -27.632)" fill="#040505"/>
        <path id="Path_69" data-name="Path 69" d="M122.729,60.611H120.6v-3.93h2.127V55.2c0-4.187,2.608-6.184,6.6-6.184a10.323,10.323,0,0,1,2.642.353v4.22a5.286,5.286,0,0,0-1.579-.226,1.693,1.693,0,0,0-1.933,1.836v1.482h3.415v3.93h-3.415V73.527h-5.733Z" transform="translate(-27.036 -27.636)" fill="#040505"/>
        <path id="Path_70" data-name="Path 70" d="M138.919,71.443,132.187,56.3h6.248l3.479,8.987,3.221-8.987h5.508l-9.018,22.483h-5.509Z" transform="translate(-26.438 -27.26)" fill="#040505"/>
        <path id="Path_71" data-name="Path 71" d="M38.748,98.093V100.7H32.983V76.447h5.765v9.921A5.946,5.946,0,0,1,44,83.4c3.93,0,7.119,2.963,7.119,8.729v.258c0,5.8-3.189,8.7-7.15,8.7A5.461,5.461,0,0,1,38.748,98.093Zm6.507-5.7v-.258c0-2.964-1.288-4.381-3.318-4.381-2.094,0-3.35,1.514-3.35,4.349v.258c0,2.867,1.256,4.316,3.35,4.316C44.1,96.675,45.255,95.161,45.255,92.392Z" transform="translate(-31.565 -26.218)" fill="#040505"/>
        <path id="Path_72" data-name="Path 72" d="M51.417,95.69c0-3.963,3.35-5.509,8.954-5.509h1.61v-.386c0-1.611-.386-2.673-2.222-2.673a2.07,2.07,0,0,0-2.287,2H52.061c.258-4.058,3.446-6.056,8.053-6.056,4.638,0,7.6,1.9,7.6,6.377v10.919h-5.6V98.394a5.534,5.534,0,0,1-4.993,2.352C54.09,100.746,51.417,99.264,51.417,95.69Zm10.564-1.224V93.434H60.468c-2.319,0-3.351.451-3.351,1.836,0,.966.645,1.579,2,1.579C60.758,96.849,61.981,95.915,61.981,94.465Z" transform="translate(-30.613 -25.876)" fill="#040505"/>
        <path id="Path_73" data-name="Path 73" d="M69.743,76.447h5.765V90.523l4.542-6.668h5.991l-5.508,7.57,5.958,9.276H80.051l-4.542-7.375V100.7H69.743Z" transform="translate(-29.665 -26.218)" fill="#040505"/>
        <path id="Path_74" data-name="Path 74" d="M85.4,92.146v-.258c0-5.412,4.027-8.826,9.116-8.826,4.605,0,8.567,2.641,8.567,8.7v1.514H91.234c.161,2.222,1.449,3.511,3.511,3.511,1.9,0,2.706-.87,2.931-2h5.411c-.515,3.8-3.446,5.959-8.536,5.959C89.268,100.746,85.4,97.654,85.4,92.146ZM97.482,90.02c-.1-2.029-1.095-3.156-2.963-3.156-1.739,0-2.931,1.127-3.221,3.156Z" transform="translate(-28.856 -25.876)" fill="#040505"/>
        <path id="Path_75" data-name="Path 75" d="M104.41,83.5h5.765v3.351a5.311,5.311,0,0,1,5.444-3.576v5.379c-3.511-.1-5.444,1-5.444,3.7v7.988H104.41Z" transform="translate(-27.873 -25.865)" fill="#040505"/>
        <path id="Path_76" data-name="Path 76" d="M116.043,95.012h5.314c.194,1.224.741,1.9,2.384,1.9,1.417,0,2.061-.547,2.061-1.385,0-.806-.806-1.192-3.125-1.513-4.51-.581-6.41-1.9-6.41-5.412,0-3.736,3.318-5.539,7.216-5.539,4.155,0,7.054,1.417,7.44,5.442h-5.217a1.883,1.883,0,0,0-2.158-1.674c-1.257,0-1.9.548-1.9,1.321,0,.8.773,1.127,2.834,1.385,4.671.579,6.925,1.8,6.925,5.411,0,3.994-2.964,5.8-7.634,5.8C118.974,100.746,116.171,98.749,116.043,95.012Z" transform="translate(-27.272 -25.876)" fill="#040505"/>
        <path id="Path_77" data-name="Path 77" d="M33.136,103.635H38.87v24.254H33.136Z" transform="translate(-31.557 -24.813)" fill="#040505"/>
        <path id="Path_78" data-name="Path 78" d="M41.37,106.477a3.18,3.18,0,1,1,3.156,2.964A3.009,3.009,0,0,1,41.37,106.477Zm.29,4.574h5.765V127.9H41.66Z" transform="translate(-31.132 -24.821)" fill="#040505"/>
        <path id="Path_79" data-name="Path 79" d="M48.508,110.679h6.151l3.512,10.856,3.446-10.856h5.508l-6.152,16.846H54.692Z" transform="translate(-30.763 -24.449)" fill="#040505"/>
        <path id="Path_80" data-name="Path 80" d="M66.054,119.333v-.257c0-5.412,4.026-8.826,9.115-8.826,4.606,0,8.568,2.641,8.568,8.7v1.514H71.883c.161,2.222,1.449,3.511,3.511,3.511,1.9,0,2.706-.87,2.931-2h5.412c-.515,3.8-3.446,5.959-8.535,5.959C69.919,127.934,66.054,124.842,66.054,119.333Zm12.078-2.125c-.1-2.029-1.094-3.156-2.963-3.156-1.74,0-2.931,1.127-3.221,3.156Z" transform="translate(-29.856 -24.471)" fill="#040505"/>
        <path id="Path_81" data-name="Path 81" d="M84.086,122.2H89.4c.194,1.224.74,1.9,2.383,1.9,1.418,0,2.061-.547,2.061-1.385,0-.806-.8-1.192-3.124-1.513-4.51-.581-6.41-1.9-6.41-5.412,0-3.736,3.317-5.539,7.215-5.539,4.155,0,7.055,1.417,7.441,5.442H93.749a1.883,1.883,0,0,0-2.158-1.674c-1.256,0-1.9.548-1.9,1.321,0,.8.773,1.127,2.834,1.385,4.671.579,6.925,1.8,6.925,5.411,0,3.994-2.964,5.8-7.634,5.8C87.018,127.934,84.215,125.937,84.086,122.2Z" transform="translate(-28.924 -24.471)" fill="#040505"/>
        <path id="Path_82" data-name="Path 82" d="M100.531,124.1a3.211,3.211,0,0,1,3.284-3.253,3.255,3.255,0,1,1,0,6.506A3.211,3.211,0,0,1,100.531,124.1Z" transform="translate(-28.074 -23.923)" fill="#040505"/>
      </g>
      <g id="Group_78" data-name="Group 78" transform="translate(105.965 54.391)">
        <path id="Path_83" data-name="Path 83" d="M134.9,86.736a3.226,3.226,0,0,1,.836-6.331,3.211,3.211,0,0,1,3.224,3.226v.2c0,3.3-1.831,6.689-5.734,7.485l-.835-2.946C133.824,88.09,134.622,87.612,134.9,86.736Z" transform="translate(-132.392 -80.405)" fill="#040505"/>
      </g>
    </g>
  </g>
</svg>
