<svg id="Layer_1" data-name="Layer 1" xmlns="http://www.w3.org/2000/svg" viewBox="0 0 79 66"><rect y="44.42963" width="45.41013" height="4.60701" fill="#ffcd5a"/><rect width="45.41013" height="4.60701" fill="#ffcd5a"/><rect x="540.19277" y="409.55133" width="48.33007" height="4.60701" transform="translate(-409.55133 588.52285) rotate(-90)" fill="#ffcd5a"/><rect x="580.99589" y="409.55133" width="48.33007" height="4.60701" transform="translate(-368.74821 629.32596) rotate(-90)" fill="#ffcd5a"/><path d="M570.3587,445.38541v4.60437h-4.60437v-4.60437h4.60437m3.7-3.7h-12.0044v12.0044h12.0044v-12.0044Z" transform="translate(-562.0543 -387.6898)" fill="#ffcd5a"/><path d="M587.06158,445.38541v4.60437h-4.60443v-4.60437h4.60443m3.7-3.7H578.75714v12.0044H590.7616v-12.0044Z" transform="translate(-562.0543 -387.6898)" fill="#ffcd5a"/><path d="M603.7644,445.38541v4.60437H599.16v-4.60437h4.60437m3.7-3.7H595.46v12.0044h12.0044v-12.0044Z" transform="translate(-562.0543 -387.6898)" fill="#ffcd5a"/><rect id="Rectangle_27" data-name="Rectangle 27" width="79" height="66" fill="none"/></svg>