<svg id="Layer_1" data-name="Layer 1" xmlns="http://www.w3.org/2000/svg" viewBox="0 0 79 66.0001"><path d="M478.43962,392.33047c13.00955.81275,27.07946,5.09891,32.80786,23.42629,2.73481,8.74858,1.40727,16.86067-3.94483,24.10965q-.35445.47994-.72672.94634a24.11727,24.11727,0,0,0-2.06264-16.90963l-4.23511,1.05056c.07,3.69443-1.19114,5.29894-2.29275,5.55a2.53971,2.53971,0,0,1-2.667-1.71852c-.47073-1.02957-.04127-4.268.30425-6.86988.70923-5.34232,1.51359-11.39736-1.52967-15.05682a8.20716,8.20716,0,0,0-6.18723-2.80684l-2.25919,2.87469c.80506,2.69773-1.20793,7.27976-3.33912,12.13036-2.02138,4.60021-4.31274,9.81452-5.14507,15.27923a24.20327,24.20327,0,0,0,.45883,10.16285c-4.931-3.63429-8.04634-7.79315-9.28854-12.41644-2.10251-7.82462,1.48561-15.75345,4.866-21.02722,4.80515-7.49728,6.67125-13.48028,5.54515-17.78392A8.48829,8.48829,0,0,0,478.43962,392.33047Zm6.26837,56.71607c-6.6027-9.29764-2.19344-19.33458,1.69753-28.18947,1.8724-4.26168,3.56015-8.1009,3.85531-11.52045a2.77425,2.77425,0,0,1,.39029.384c1.78986,2.15217,1.09322,7.39306.53437,11.60578-.5071,3.82033-.94564,7.11958.063,9.32212a6.93818,6.93818,0,0,0,7.73229,4.21971,6.55363,6.55363,0,0,0,3.64477-2.362,19.52221,19.52221,0,0,1-1.08972,9.52215,22.30288,22.30288,0,0,1-3.93154,6.79085l2.75718,3.46222a38.4248,38.4248,0,0,0,10.43772-9.61519,30.39813,30.39813,0,0,0,4.72121-28.24542c-3.34891-10.7133-9.76906-18.29382-19.08068-22.53032-8.09321-3.68183-17.00615-4.16025-23.00733-4.20082l-1.06665,4.21412a3.787,3.787,0,0,1,2.048,2.50049c.44764,1.71363.39658,5.84171-4.9835,14.235-3.86789,6.03405-7.94772,15.20019-5.42065,24.60485,2.048,7.61968,8.05334,14.04193,17.84827,19.08768Z" transform="translate(-463.22798 -387.68969)" fill="#ffcd5a"/><rect id="Rectangle_27" data-name="Rectangle 27" y="0.0001" width="79" height="66" fill="none"/></svg>