<svg id="Group_85" data-name="Group 85" xmlns="http://www.w3.org/2000/svg" width="26.216" height="26.216" viewBox="0 0 26.216 26.216">
  <g id="Group_82" data-name="Group 82">
    <circle id="Ellipse_32" data-name="Ellipse 32" cx="13.108" cy="13.108" r="13.108" fill="#fff"/>
  </g>
  <g id="Group_84" data-name="Group 84" transform="translate(7.116 7.083)">
    <g id="Group_83" data-name="Group 83">
      <path id="Path_85" data-name="Path 85" d="M773.54,368.931a3.206,3.206,0,0,0-3.052-3.067c-.107-.008-.213-.039-.32-.057h-5.2c-.345.064-.7.1-1.03.195a3.194,3.194,0,0,0-2.343,2.784v6.07a5.981,5.981,0,0,0,.158.712,3.1,3.1,0,0,0,2.923,2.261c1.932.037,3.865.045,5.8,0a3.15,3.15,0,0,0,3.065-3.04Q773.621,371.86,773.54,368.931Zm-3.329,7.812q-2.643.043-5.286,0a2.163,2.163,0,0,1-2.25-2.263q-.037-2.628,0-5.256a2.171,2.171,0,0,1,2.277-2.267q2.612-.034,5.225,0a2.183,2.183,0,0,1,2.285,2.263c.024.876,0,1.752,0,2.628h0v2.273c-.014.228-.035.455-.064.683A2.063,2.063,0,0,1,770.211,376.743Z" transform="translate(-761.595 -365.807)" fill="#040505"/>
      <path id="Path_86" data-name="Path 86" d="M765.927,367.238a3.113,3.113,0,1,0,3.266,2.694A3.2,3.2,0,0,0,765.927,367.238Zm.174,5.114a2,2,0,1,1,2-1.988A1.987,1.987,0,0,1,766.1,372.352Z" transform="translate(-760.13 -364.309)" fill="#040505"/>
      <path id="Path_87" data-name="Path 87" d="M766.454,366.822a.745.745,0,0,0-.736.755.761.761,0,0,0,.743.722.751.751,0,0,0,.735-.759A.738.738,0,0,0,766.454,366.822Z" transform="translate(-757.262 -364.74)" fill="#040505"/>
    </g>
  </g>
</svg>
