<svg xmlns="http://www.w3.org/2000/svg" width="79" height="66" viewBox="0 0 79 66">
  <g id="komin" transform="translate(191 -3452)">
    <rect id="Rectangle_27" data-name="Rectangle 27" width="79" height="66" transform="translate(-191 3452)" fill="none"/>
    <path id="Path_99" data-name="Path 99" d="M25.623,142.539h8.356v14.151h4.607V142.539H75.642v14.151h4.607V142.539H88.6V125.181H25.623Zm4.607-12.751H84v8.144H30.23Z" transform="translate(-216.623 3361.311)" fill="#ffcd5a"/>
    <path id="Path_100" data-name="Path 100" d="M75.708,33.575h4.607c0-2.832,1.172-4.867,2.412-7.022,1.212-2.107,2.466-4.285,2.466-7.075s-1.242-4.9-2.443-6.961C81.5,10.374,80.315,8.35,80.315,5.381H75.708c0,4.216,1.7,7.124,3.064,9.46,1.014,1.735,1.814,3.105,1.814,4.637,0,1.559-.817,2.98-1.852,4.777C77.386,26.6,75.708,29.513,75.708,33.575Z" transform="translate(-252.288 3446.619)" fill="#ffcd5a"/>
    <path id="Path_101" data-name="Path 101" d="M118.528,33.575h4.607c0-2.832,1.172-4.867,2.412-7.022,1.213-2.107,2.466-4.285,2.466-7.075s-1.242-4.9-2.443-6.961c-1.252-2.143-2.435-4.167-2.435-7.136h-4.607c0,4.216,1.7,7.124,3.064,9.46,1.014,1.735,1.814,3.106,1.814,4.637,0,1.559-.817,2.98-1.852,4.777C120.206,26.6,118.528,29.513,118.528,33.575Z" transform="translate(-282.78 3446.619)" fill="#ffcd5a"/>
    <path id="Path_102" data-name="Path 102" d="M161.348,33.575h4.607c0-2.832,1.172-4.867,2.412-7.022,1.212-2.107,2.466-4.285,2.466-7.075s-1.242-4.9-2.443-6.961c-1.252-2.143-2.435-4.167-2.435-7.136h-4.607c0,4.216,1.7,7.124,3.064,9.46,1.013,1.735,1.814,3.105,1.814,4.637,0,1.559-.817,2.98-1.852,4.777C163.026,26.6,161.348,29.513,161.348,33.575Z" transform="translate(-313.271 3446.619)" fill="#ffcd5a"/>
  </g>
</svg>
