<svg xmlns="http://www.w3.org/2000/svg" width="79" height="66.024" viewBox="0 0 79 66.024">
  <g id="napojeni" transform="translate(191 -3151.976)">
    <rect id="Rectangle_27" data-name="Rectangle 27" width="79" height="66" transform="translate(-191 3152)" fill="none"/>
    <path id="Path_96" data-name="Path 96" d="M38.126,31.464h7.057V20.312H42.967a3.036,3.036,0,1,1,0-6.073h2.216V3.086H16.805V31.464h7.057a7.469,7.469,0,0,0,14.264,0ZM27.958,29.248V27.033H21.236V7.517H40.752v2.626a7.469,7.469,0,0,0,0,14.263v2.625H34.03v2.216a3.036,3.036,0,0,1-6.072,0Z" transform="translate(-207.805 3148.89)" fill="#ffcd5a"/>
    <path id="Path_97" data-name="Path 97" d="M88.21,55.039a7.469,7.469,0,0,0,0,14.264v2.626H81.488v2.216a3.036,3.036,0,0,1-6.072,0V71.929H64.263v28.378h52.326V47.982H88.21Zm2.216,34.115H88.21v6.722H68.694V76.36H71.32a7.469,7.469,0,0,0,14.264,0H88.21v6.721h2.216a3.036,3.036,0,1,1,0,6.073Zm21.731,6.722H92.641V93.25a7.469,7.469,0,0,0,0-14.263V76.361h6.722V74.146a3.036,3.036,0,1,1,6.072,0v2.216h6.723ZM90.425,59.135h2.216V52.413h19.517V71.929h-2.626a7.469,7.469,0,0,0-14.263,0H92.644V65.207H90.428a3.036,3.036,0,1,1,0-6.073Z" transform="translate(-242.119 3116.428)" fill="#ffcd5a"/>
  </g>
</svg>
