<svg xmlns="http://www.w3.org/2000/svg" width="79" height="66" viewBox="0 0 79 66">
  <g id="ochrana-zp" transform="translate(191 -2978)">
    <rect id="Rectangle_27" data-name="Rectangle 27" width="79" height="66" transform="translate(-191 2978)" fill="none"/>
    <path id="Path_95" data-name="Path 95" d="M89.265,18.083l-.371-1.1-1.1-.371a39.071,39.071,0,0,0-49.96,48.12l-8.253,8.253L32.892,76.3l8.254-8.254a39.073,39.073,0,0,0,48.119-49.96ZM85.788,38.154A34.374,34.374,0,0,1,45,64.191l7.3-7.3H65.748V52.21H56.979L80.348,28.84l-3.313-3.313L65.22,37.343V28.574H60.535V42.027L41.684,60.879A34.384,34.384,0,0,1,85.18,20.7a34.508,34.508,0,0,1,.608,17.459Z" transform="translate(-220.579 2965.573)" fill="#ffcd5a"/>
  </g>
</svg>
