<svg xmlns="http://www.w3.org/2000/svg" width="79" height="66" viewBox="0 0 79 66">
  <g id="rekuperace-tepla" transform="translate(191 -2659)">
    <rect id="Rectangle_27" data-name="Rectangle 27" width="79" height="66" transform="translate(-191 2659)" fill="none"/>
    <path id="Path_89" data-name="Path 89" d="M152.2,60.387h-4.307c0,3.438-1.142,5.837-2.351,8.376-1.1,2.315-2.242,4.711-2.242,7.672s1.128,5.281,2.219,7.537a18.231,18.231,0,0,1,2.374,8.509H152.2A22.084,22.084,0,0,0,149.4,82.1c-1-2.07-1.79-3.7-1.79-5.664,0-1.989.845-3.765,1.824-5.82A22.227,22.227,0,0,0,152.2,60.387Z" transform="translate(-297.812 2615.183)" fill="#ffcd5a"/>
    <path id="Path_90" data-name="Path 90" d="M109.075,60.387h-4.307c0,3.438-1.142,5.836-2.351,8.376-1.1,2.315-2.242,4.71-2.242,7.672,0,2.947,1.128,5.281,2.219,7.537a18.226,18.226,0,0,1,2.374,8.509h4.307a22.084,22.084,0,0,0-2.8-10.383c-1-2.07-1.79-3.7-1.79-5.664,0-1.989.845-3.765,1.824-5.82A22.236,22.236,0,0,0,109.075,60.387Z" transform="translate(-266.295 2615.183)" fill="#ffcd5a"/>
    <path id="Path_91" data-name="Path 91" d="M65.952,60.387H61.644c0,3.438-1.142,5.836-2.351,8.376-1.1,2.315-2.242,4.71-2.242,7.672,0,2.947,1.128,5.281,2.219,7.537a18.225,18.225,0,0,1,2.374,8.509h4.307a22.084,22.084,0,0,0-2.8-10.383c-1-2.07-1.79-3.7-1.79-5.664,0-1.989.845-3.765,1.824-5.82A22.236,22.236,0,0,0,65.952,60.387Z" transform="translate(-234.78 2615.183)" fill="#ffcd5a"/>
    <path id="Path_92" data-name="Path 92" d="M57.035,41.734l2.71,3.347,4.983-4.035A26.541,26.541,0,1,1,63.094,25.83l3.967-1.678A30.868,30.868,0,1,0,69,41.645l3.9,4.819,3.346-2.71-8.6-10.617Z" transform="translate(-198.753 2655.453)" fill="#ffcd5a"/>
  </g>
</svg>
