<svg xmlns="http://www.w3.org/2000/svg" width="79" height="66" viewBox="0 0 79 66">
  <g id="reseni-na-miru" transform="translate(191 -3307)">
    <rect id="Rectangle_27" data-name="Rectangle 27" width="79" height="66" transform="translate(-191 3307)" fill="none"/>
    <path id="Path_98" data-name="Path 98" d="M68.551,11.488,29.743,50.3,23.173,72.9l22.606-6.57L84.586,27.524A11.339,11.339,0,1,0,68.551,11.488Zm12.761,3.275a6.691,6.691,0,0,1,1.342,7.555l-8.894-8.895a6.713,6.713,0,0,1,7.551,1.34ZM41.456,57.894,76.569,22.781l3.105,3.105L44.562,61ZM73.3,19.506,38.181,54.619l-3.1-3.105L70.189,16.4ZM32.932,55.92l7.223,7.223L29.973,66.1Z" transform="translate(-214.173 3298.833)" fill="#ffcd5a"/>
  </g>
</svg>
